<svg width="17" height="17" viewBox="0 0 17 17" fill="none" xmlns="http://www.w3.org/2000/svg">
<path d="M9.56853 11.5172C9.32058 11.2693 9.32058 10.8673 9.56853 10.6193C9.81648 10.3714 10.2185 10.3714 10.4664 10.6193L13.0061 13.159C13.2541 13.4069 13.2541 13.809 13.0061 14.0569C12.7582 14.3049 12.3562 14.3049 12.1082 14.0569L9.56853 11.5172Z" fill="#72849A"/>
<path fill-rule="evenodd" clip-rule="evenodd" d="M3.17532 7.91233C3.17532 10.3597 5.15932 12.3437 7.6067 12.3437C10.0541 12.3437 12.0381 10.3597 12.0381 7.91233C12.0381 5.46495 10.0541 3.48096 7.6067 3.48096C5.15932 3.48096 3.17532 5.46495 3.17532 7.91233ZM10.7719 7.91234C10.7719 9.66046 9.3548 11.0776 7.60668 11.0776C5.85855 11.0776 4.44141 9.66046 4.44141 7.91234C4.44141 6.16421 5.85855 4.74707 7.60668 4.74707C9.3548 4.74707 10.7719 6.16421 10.7719 7.91234Z" fill="#72849A"/>
</svg>
