<svg width="22" height="22" viewBox="0 0 22 22" fill="none" xmlns="http://www.w3.org/2000/svg">
<g id="icon/editor/border_color_24px">
<path id="icon/editor/border_color_24px_2" fill-rule="evenodd" clip-rule="evenodd" d="M18.9842 3.70523C19.3417 3.34776 19.3417 2.77032 18.9842 2.41286L16.8392 0.268084C16.6679 0.0964535 16.4354 0 16.1929 0C15.9504 0 15.7179 0.0964535 15.5467 0.268084L13.75 2.06456L17.1875 5.50171L18.9842 3.70523ZM16.2708 6.41828L12.8333 2.98113L3.80417 12.0094C3.7125 12.101 3.66667 12.211 3.66667 12.3393V15.1257C3.66667 15.3823 3.86833 15.584 4.125 15.584H6.91167C7.03083 15.584 7.15 15.5382 7.2325 15.4465L16.2708 6.41828ZM20.1667 18.3337H1.83333C0.825 18.3337 0 19.1586 0 20.1669C0 21.1751 0.825 22 1.83333 22H20.1667C21.175 22 22 21.1751 22 20.1669C22 19.1586 21.175 18.3337 20.1667 18.3337Z" fill="#F5802A"/>
</g>
</svg>
